# xmcd
#
# Track frame offsets:
#	150
#	13170
#	33495
#	61753
#	77895
#	101345
#	122468
#	156058
#	173837
#	201272
#	218102
#	233039
#
# Disc length: 3430 seconds
#
# Revision: 1
# Processed by: cddbd v1.5.2PL0 Copyright (c) Steve Scherf et al.
# Submitted via: audiograbber 1.83.01
#
DISCID=940d640c
DTITLE=Sidetrackers - Live in the studio
DYEAR=2019
DGENRE=
TTITLE0=Blom`s shuffle
TTITLE1=Time likes to slip avay
TTITLE2=Rollin and Tumblin
TTITLE3=Nobody`s fault but mine
TTITLE4=Night wind
TTITLE5=Why are you so mean to me
TTITLE6=Gotta serve somebody
TTITLE7=San ho zay
TTITLE8=Stormy monday
TTITLE9=E45
TTITLE10=Rock this house
TTITLE11=You don`t love me
EXTD=
EXTT0=
EXTT1=
EXTT2=
EXTT3=
EXTT4=
EXTT5=
EXTT6=
EXTT7=
EXTT8=
EXTT9=
EXTT10=
EXTT11=
PLAYORDER=
